<svg width="28" height="28" viewBox="0 0 28 28" fill="none" xmlns="http://www.w3.org/2000/svg">
    <path opacity="0.2"
        d="M8.76778 18.1816C7.74193 17.3839 6.91107 16.3632 6.33815 15.1969C5.76523 14.0305 5.46528 12.7491 5.46103 11.4496C5.43949 6.7749 9.19863 2.8865 13.8733 2.77879C15.6825 2.7359 17.4593 3.26371 18.9517 4.28736C20.444 5.31102 21.5762 6.77854 22.1877 8.48182C22.7992 10.1851 22.8589 12.0377 22.3583 13.7768C21.8577 15.5159 20.8223 17.0532 19.3989 18.1708C19.0845 18.4138 18.8298 18.7256 18.6543 19.0821C18.4788 19.4387 18.3872 19.8307 18.3864 20.2281V20.8744C18.3864 21.1029 18.2957 21.3221 18.1341 21.4837C17.9725 21.6453 17.7533 21.7361 17.5248 21.7361H10.6312C10.4027 21.7361 10.1835 21.6453 10.0219 21.4837C9.86029 21.3221 9.7695 21.1029 9.7695 20.8744V20.2281C9.7668 19.8337 9.67536 19.4449 9.50196 19.0906C9.32855 18.7364 9.07762 18.4257 8.76778 18.1816Z"
        fill="#5C71CB" />
    <path fill-rule="evenodd" clip-rule="evenodd"
        d="M18.4627 4.99784C17.1195 4.07655 15.5204 3.60152 13.8922 3.64012L13.8916 3.64013C9.68946 3.73696 6.30174 7.23752 6.32113 11.4455L6.32113 11.4466C6.32496 12.6153 6.59472 13.7679 7.10999 14.8168C7.62525 15.8658 8.3725 16.7838 9.29513 17.5012L8.76619 18.1815L9.29943 17.5046C9.71086 17.8287 10.0441 18.2413 10.2743 18.7117C10.5046 19.1821 10.626 19.6983 10.6296 20.2221L10.6296 20.228L10.6296 20.8742H17.5232V20.228L17.5232 20.2263C17.5242 19.6975 17.6461 19.176 17.8796 18.7015C18.1126 18.2282 18.4504 17.8142 18.8675 17.4911C20.1474 16.4855 21.0784 15.1026 21.5286 13.5383C21.9791 11.9731 21.9254 10.3058 21.3751 8.77285C20.8248 7.2399 19.8058 5.91912 18.4627 4.99784ZM8.23481 18.8598C7.10685 17.9822 6.19325 16.8595 5.56314 15.5767C4.93257 14.2929 4.60243 12.8825 4.59775 11.4523L5.45944 11.4495L4.59776 11.4534L4.59775 11.4523C4.57468 6.31158 8.7047 2.03611 13.8513 1.91721L13.8717 2.77867L13.8519 1.9172C15.8418 1.87015 17.796 2.45074 19.4375 3.57665C21.0791 4.70266 22.3245 6.31695 22.9971 8.19055C23.6697 10.0642 23.7354 12.102 23.1848 14.015C22.6342 15.928 21.4952 17.6191 19.9295 18.8484L19.9243 18.8525L19.9243 18.8524C19.7138 19.0151 19.5433 19.2238 19.4259 19.4625C19.3085 19.701 19.2472 19.963 19.2465 20.2288V20.8742C19.2465 21.3313 19.065 21.7697 18.7418 22.0929C18.4186 22.4161 17.9802 22.5976 17.5232 22.5976H10.6296C10.1725 22.5976 9.73419 22.4161 9.41099 22.0929C9.08779 21.7697 8.90622 21.3313 8.90622 20.8742V20.2312C8.90402 19.967 8.84258 19.7067 8.72641 19.4693C8.61021 19.2319 8.44221 19.0236 8.23481 18.8598ZM8.90613 25.1828C8.90613 24.7069 9.29192 24.3211 9.76782 24.3211H18.3848C18.8607 24.3211 19.2465 24.7069 19.2465 25.1828C19.2465 25.6587 18.8607 26.0445 18.3848 26.0445H9.76782C9.29192 26.0445 8.90613 25.6587 8.90613 25.1828ZM15.0921 5.46223C14.6229 5.38269 14.178 5.69858 14.0985 6.16778C14.019 6.63699 14.3349 7.08184 14.8041 7.16137C15.6813 7.31009 16.4908 7.72744 17.1208 8.35581C17.7508 8.98419 18.1702 9.79262 18.3212 10.6695C18.4019 11.1385 18.8476 11.4533 19.3166 11.3725C19.7856 11.2918 20.1003 10.8461 20.0196 10.3771C19.8081 9.14861 19.2205 8.016 18.3379 7.13564C17.4553 6.25528 16.3212 5.67058 15.0921 5.46223Z"
        fill="#5C71CB" />
</svg>
    