<svg width="67" height="61" viewBox="0 0 67 61" fill="none" xmlns="http://www.w3.org/2000/svg">
    <circle cx="24.0531" cy="23.6938" r="23.6938" fill="#FFD8CC" fill-opacity="0.4" />
    <path opacity="0.2"
        d="M56.2624 12.5179L15.6694 23.951C15.3239 24.0455 15.0159 24.2442 14.7873 24.52C14.5588 24.7959 14.4208 25.1355 14.3923 25.4926C14.3637 25.8497 14.4459 26.2069 14.6277 26.5156C14.8095 26.8243 15.082 27.0694 15.4081 27.2176L34.0495 36.0374C34.4147 36.2066 34.708 36.4998 34.8771 36.865L43.6969 55.5064C43.8451 55.8325 44.0902 56.105 44.3989 56.2868C44.7076 56.4686 45.0648 56.5508 45.4219 56.5222C45.779 56.4937 46.1186 56.3557 46.3945 56.1272C46.6703 55.8986 46.869 55.5906 46.9635 55.2451L58.3966 14.6521C58.4832 14.3559 58.4886 14.0418 58.4121 13.7428C58.3356 13.4438 58.1801 13.1709 57.9619 12.9526C57.7436 12.7344 57.4707 12.5789 57.1717 12.5024C56.8727 12.4259 56.5586 12.4313 56.2624 12.5179Z"
        fill="#FE6333" />
    <path fill-rule="evenodd" clip-rule="evenodd"
        d="M57.3421 11.8274C56.9232 11.7202 56.4833 11.7274 56.0682 11.8481L56.0645 11.8491L15.4833 23.2789L15.4805 23.2797C14.9979 23.4123 14.5677 23.6901 14.2484 24.0755C13.9284 24.4617 13.7353 24.9372 13.6953 25.4371C13.6553 25.937 13.7704 26.4371 14.0249 26.8693C14.2784 27.2998 14.658 27.642 15.1122 27.8498L33.7491 36.6675L33.7491 36.6675L33.7543 36.6699C33.9697 36.7696 34.1426 36.9426 34.2424 37.1579L34.2423 37.1579L34.2448 37.1631L43.0625 55.8C43.2702 56.2543 43.6124 56.6339 44.043 56.8874C44.4751 57.1419 44.9752 57.257 45.4751 57.217C45.9751 57.177 46.4505 56.9839 46.8367 56.6639C47.2222 56.3446 47.5 55.9144 47.6326 55.4318L47.6334 55.4289L59.0631 14.8478L59.0642 14.8442C59.1849 14.429 59.1921 13.9891 59.0849 13.5702C58.9774 13.1501 58.7589 12.7666 58.4523 12.46C58.1457 12.1533 57.7622 11.9348 57.3421 11.8274ZM56.449 13.1888L56.26 12.5178L56.4557 13.1869C56.6319 13.1353 56.8188 13.1321 56.9967 13.1776C57.1746 13.2231 57.3369 13.3157 57.4668 13.4455C57.5966 13.5753 57.6891 13.7377 57.7346 13.9156C57.7801 14.0935 57.7769 14.2803 57.7254 14.4566L57.7254 14.4566L57.7235 14.4633L46.2904 55.0562L46.2889 55.0614C46.2323 55.2687 46.113 55.4535 45.9475 55.5906C45.782 55.7278 45.5783 55.8105 45.364 55.8277C45.1497 55.8448 44.9354 55.7955 44.7502 55.6864C44.565 55.5774 44.4179 55.4138 44.329 55.2182L44.3291 55.2181L44.3245 55.2084L35.5071 36.5722L35.5058 36.5694C35.4874 36.5298 35.4679 36.4908 35.4475 36.4524L44.9517 26.9482C45.2238 26.676 45.2238 26.2348 44.9517 25.9626C44.6795 25.6905 44.2383 25.6905 43.9661 25.9626L34.4625 35.4662C34.4233 35.4452 34.3834 35.4253 34.3428 35.4065L34.34 35.4052L15.7038 26.5878L15.7039 26.5877L15.6941 26.5833C15.4984 26.4943 15.3349 26.3473 15.2258 26.1621C15.1168 25.9768 15.0674 25.7625 15.0846 25.5483C15.1017 25.334 15.1845 25.1302 15.3216 24.9647C15.4587 24.7992 15.6436 24.68 15.8509 24.6233L15.8509 24.6233L15.856 24.6219L56.449 13.1888Z"
        fill="#FE6333" />
</svg>
    